<svg xmlns="http://www.w3.org/2000/svg" width="50" height="50" viewBox="0 0 50 50">
  <!-- Pomarańczowe tło -->
  <rect width="50" height="50" rx="4" fill="#f47021"/>
  
  <!-- Biały symbol -->
  <g fill="none" stroke="white" stroke-width="2.5" stroke-linecap="round" stroke-linejoin="round">
    <path d="M25 44V10"/>
    <path d="M25 36c-3-1-5-4-4-7 1 3 4 4 4 7z" fill="white"/>
    <path d="M25 36c3-1 5-4 4-7-1 3-4 4-4 7z" fill="white"/>
    <path d="M25 28c-3-1-5-4-4-7 1 3 4 4 4 7z" fill="white"/>
    <path d="M25 28c3-1 5-4 4-7-1 3-4 4-4 7z" fill="white"/>
    <path d="M25 20c-3-1-5-4-4-7 1 3 4 4 4 7z" fill="white"/>
    <path d="M25 20c3-1 5-4 4-7-1 3-4 4-4 7z" fill="white"/>
    <path d="M25 12c-1-2-1-5 0-7 1 2 1 5 0 7z" fill="white"/>
  </g>
</svg>
